{
    "patcher": {
        "fileversion": 1,
        "appversion": {
            "major": 9,
            "minor": 1,
            "revision": 2,
            "architecture": "x64",
            "modernui": 1
        },
        "classnamespace": "box",
        "rect": [ 42.0, 153.0, 1000.0, 647.0 ],
        "boxes": [
            {
                "box": {
                    "id": "obj-32",
                    "maxclass": "comment",
                    "numinlets": 1,
                    "numoutlets": 0,
                    "patching_rect": [ 63.0, 146.0, 46.0, 20.0 ],
                    "text": "umenu"
                }
            },
            {
                "box": {
                    "id": "obj-30",
                    "items": [ "none", ",", "adc", ",", "playlist", ",", "noise", ",", "click", ",", "sine" ],
                    "maxclass": "umenu",
                    "numinlets": 1,
                    "numoutlets": 3,
                    "outlettype": [ "int", "", "" ],
                    "parameter_enable": 0,
                    "patching_rect": [ 9.0, 171.0, 100.0, 22.0 ]
                }
            },
            {
                "box": {
                    "id": "obj-29",
                    "maxclass": "newobj",
                    "numinlets": 1,
                    "numoutlets": 0,
                    "patching_rect": [ 304.0, 586.0, 61.0, 22.0 ],
                    "text": "send~ in1"
                }
            },
            {
                "box": {
                    "id": "obj-27",
                    "maxclass": "newobj",
                    "numinlets": 6,
                    "numoutlets": 1,
                    "outlettype": [ "signal" ],
                    "patching_rect": [ 31.0, 235.0, 607.0, 22.0 ],
                    "text": "selector~ 5"
                }
            },
            {
                "box": {
                    "id": "obj-26",
                    "maxclass": "comment",
                    "numinlets": 1,
                    "numoutlets": 0,
                    "patching_rect": [ 519.0, 62.0, 63.0, 20.0 ],
                    "text": "playlist~"
                }
            },
            {
                "box": {
                    "clipheight": 91.0,
                    "data": {
                        "clips": [
                            {
                                "absolutepath": "cym.aiff",
                                "filename": "cym.aiff",
                                "filekind": "audiofile",
                                "id": "u835009101",
                                "loop": 0,
                                "content_state": {                                }
                            }
                        ]
                    },
                    "id": "obj-19",
                    "maxclass": "playlist~",
                    "mode": "basic",
                    "numinlets": 1,
                    "numoutlets": 5,
                    "outlettype": [ "signal", "signal", "signal", "", "dictionary" ],
                    "parameter_enable": 0,
                    "patching_rect": [ 357.0, 57.0, 150.0, 92.0 ],
                    "quality": "basic",
                    "saved_attribute_attributes": {
                        "candicane2": {
                            "expression": ""
                        },
                        "candicane3": {
                            "expression": ""
                        },
                        "candicane4": {
                            "expression": ""
                        },
                        "candicane5": {
                            "expression": ""
                        },
                        "candicane6": {
                            "expression": ""
                        },
                        "candicane7": {
                            "expression": ""
                        },
                        "candicane8": {
                            "expression": ""
                        }
                    }
                }
            },
            {
                "box": {
                    "id": "obj-18",
                    "maxclass": "newobj",
                    "numinlets": 2,
                    "numoutlets": 1,
                    "outlettype": [ "signal" ],
                    "patching_rect": [ 834.0, 284.0, 40.0, 22.0 ],
                    "text": "*~ 0.2"
                }
            },
            {
                "box": {
                    "id": "obj-15",
                    "maxclass": "newobj",
                    "numinlets": 2,
                    "numoutlets": 1,
                    "outlettype": [ "signal" ],
                    "patching_rect": [ 834.0, 241.0, 66.0, 22.0 ],
                    "text": "cycle~ 200"
                }
            },
            {
                "box": {
                    "id": "obj-14",
                    "maxclass": "comment",
                    "numinlets": 1,
                    "numoutlets": 0,
                    "patching_rect": [ 740.0, 172.0, 60.0, 20.0 ],
                    "text": "t - toggle"
                }
            },
            {
                "box": {
                    "id": "obj-12",
                    "maxclass": "toggle",
                    "numinlets": 1,
                    "numoutlets": 1,
                    "outlettype": [ "int" ],
                    "parameter_enable": 0,
                    "patching_rect": [ 699.0, 170.0, 24.0, 24.0 ]
                }
            },
            {
                "box": {
                    "id": "obj-10",
                    "maxclass": "newobj",
                    "numinlets": 2,
                    "numoutlets": 1,
                    "outlettype": [ "bang" ],
                    "patching_rect": [ 699.0, 212.0, 63.0, 22.0 ],
                    "text": "metro 500"
                }
            },
            {
                "box": {
                    "id": "obj-8",
                    "maxclass": "newobj",
                    "numinlets": 1,
                    "numoutlets": 1,
                    "outlettype": [ "signal" ],
                    "patching_rect": [ 699.0, 268.0, 39.0, 22.0 ],
                    "text": "click~"
                }
            },
            {
                "box": {
                    "id": "obj-7",
                    "maxclass": "newobj",
                    "numinlets": 2,
                    "numoutlets": 1,
                    "outlettype": [ "signal" ],
                    "patching_rect": [ 598.0, 127.0, 40.0, 22.0 ],
                    "text": "*~ 0.2"
                }
            },
            {
                "box": {
                    "id": "obj-6",
                    "maxclass": "comment",
                    "numinlets": 1,
                    "numoutlets": 0,
                    "patching_rect": [ 650.0, 93.0, 150.0, 20.0 ],
                    "text": "white noise generator"
                }
            },
            {
                "box": {
                    "id": "obj-4",
                    "maxclass": "newobj",
                    "numinlets": 1,
                    "numoutlets": 1,
                    "outlettype": [ "signal" ],
                    "patching_rect": [ 598.0, 92.0, 44.0, 22.0 ],
                    "text": "noise~"
                }
            },
            {
                "box": {
                    "id": "obj-3",
                    "linecount": 4,
                    "maxclass": "comment",
                    "numinlets": 1,
                    "numoutlets": 0,
                    "patching_rect": [ 175.0, 33.0, 150.0, 60.0 ],
                    "text": "built in microphone\nalso can be phsyical inputs on an audio interface"
                }
            },
            {
                "box": {
                    "id": "obj-1",
                    "maxclass": "newobj",
                    "numinlets": 1,
                    "numoutlets": 1,
                    "outlettype": [ "signal" ],
                    "patching_rect": [ 115.0, 52.0, 45.0, 22.0 ],
                    "text": "adc~ 1"
                }
            },
            {
                "box": {
                    "id": "obj-25",
                    "maxclass": "comment",
                    "numinlets": 1,
                    "numoutlets": 0,
                    "patching_rect": [ 302.0, 342.0, 150.0, 20.0 ],
                    "text": "- 0dB (unity gain)"
                }
            },
            {
                "box": {
                    "id": "obj-20",
                    "maxclass": "gain~",
                    "multichannelvariant": 0,
                    "numinlets": 1,
                    "numoutlets": 2,
                    "outlettype": [ "signal", "" ],
                    "parameter_enable": 0,
                    "patching_rect": [ 323.5, 388.0, 22.0, 140.0 ]
                }
            },
            {
                "box": {
                    "id": "obj-21",
                    "maxclass": "live.meter~",
                    "numinlets": 1,
                    "numoutlets": 2,
                    "outlettype": [ "float", "int" ],
                    "patching_rect": [ 384.0, 428.0, 5.0, 100.0 ],
                    "slidercolor": [ 0.079348079365577, 0.07934804057877, 0.079348050547289, 1.0 ]
                }
            },
            {
                "box": {
                    "id": "obj-22",
                    "maxclass": "live.meter~",
                    "numinlets": 1,
                    "numoutlets": 2,
                    "outlettype": [ "float", "int" ],
                    "patching_rect": [ 287.0, 428.0, 5.0, 100.0 ],
                    "slidercolor": [ 0.079348079365577, 0.07934804057877, 0.079348050547289, 1.0 ]
                }
            }
        ],
        "lines": [
            {
                "patchline": {
                    "destination": [ "obj-27", 1 ],
                    "source": [ "obj-1", 0 ]
                }
            },
            {
                "patchline": {
                    "destination": [ "obj-8", 0 ],
                    "source": [ "obj-10", 0 ]
                }
            },
            {
                "patchline": {
                    "destination": [ "obj-10", 0 ],
                    "source": [ "obj-12", 0 ]
                }
            },
            {
                "patchline": {
                    "destination": [ "obj-18", 0 ],
                    "source": [ "obj-15", 0 ]
                }
            },
            {
                "patchline": {
                    "destination": [ "obj-27", 5 ],
                    "midpoints": [ 843.5, 309.0, 648.0, 309.0, 648.0, 231.0, 628.5, 231.0 ],
                    "source": [ "obj-18", 0 ]
                }
            },
            {
                "patchline": {
                    "destination": [ "obj-27", 2 ],
                    "source": [ "obj-19", 0 ]
                }
            },
            {
                "patchline": {
                    "destination": [ "obj-21", 0 ],
                    "order": 0,
                    "source": [ "obj-20", 0 ]
                }
            },
            {
                "patchline": {
                    "destination": [ "obj-29", 0 ],
                    "order": 1,
                    "source": [ "obj-20", 0 ]
                }
            },
            {
                "patchline": {
                    "destination": [ "obj-20", 0 ],
                    "order": 0,
                    "source": [ "obj-27", 0 ]
                }
            },
            {
                "patchline": {
                    "destination": [ "obj-22", 0 ],
                    "order": 1,
                    "source": [ "obj-27", 0 ]
                }
            },
            {
                "patchline": {
                    "destination": [ "obj-27", 0 ],
                    "source": [ "obj-30", 0 ]
                }
            },
            {
                "patchline": {
                    "destination": [ "obj-7", 0 ],
                    "source": [ "obj-4", 0 ]
                }
            },
            {
                "patchline": {
                    "destination": [ "obj-27", 3 ],
                    "midpoints": [ 607.5, 222.0, 393.3, 222.0 ],
                    "source": [ "obj-7", 0 ]
                }
            },
            {
                "patchline": {
                    "destination": [ "obj-27", 4 ],
                    "midpoints": [ 708.5, 291.0, 648.0, 291.0, 648.0, 222.0, 510.9, 222.0 ],
                    "source": [ "obj-8", 0 ]
                }
            }
        ],
        "autosave": 0
    }
}